<?xml version="1.0" encoding="UTF-8"?>
<svg width="14px" height="16px" viewBox="0 0 14 16" version="1.1" xmlns="http://www.w3.org/2000/svg" xmlns:xlink="http://www.w3.org/1999/xlink">
    <title>calendar-alt-solid</title>
    <g id="Page-1" stroke="none" stroke-width="1" fill="none" fill-rule="evenodd">
        <g id="calendar-alt-solid" fill="#5C50DA" fill-rule="nonzero">
            <path d="M0,14.5 C0,15.328125 0.671875,16 1.5,16 L12.5,16 C13.328125,16 14,15.328125 14,14.5 L14,6 L0,6 L0,14.5 Z M10,8.375 C10,8.16875 10.16875,8 10.375,8 L11.625,8 C11.83125,8 12,8.16875 12,8.375 L12,9.625 C12,9.83125 11.83125,10 11.625,10 L10.375,10 C10.16875,10 10,9.83125 10,9.625 L10,8.375 Z M10,12.375 C10,12.16875 10.16875,12 10.375,12 L11.625,12 C11.83125,12 12,12.16875 12,12.375 L12,13.625 C12,13.83125 11.83125,14 11.625,14 L10.375,14 C10.16875,14 10,13.83125 10,13.625 L10,12.375 Z M6,8.375 C6,8.16875 6.16875,8 6.375,8 L7.625,8 C7.83125,8 8,8.16875 8,8.375 L8,9.625 C8,9.83125 7.83125,10 7.625,10 L6.375,10 C6.16875,10 6,9.83125 6,9.625 L6,8.375 Z M6,12.375 C6,12.16875 6.16875,12 6.375,12 L7.625,12 C7.83125,12 8,12.16875 8,12.375 L8,13.625 C8,13.83125 7.83125,14 7.625,14 L6.375,14 C6.16875,14 6,13.83125 6,13.625 L6,12.375 Z M2,8.375 C2,8.16875 2.16875,8 2.375,8 L3.625,8 C3.83125,8 4,8.16875 4,8.375 L4,9.625 C4,9.83125 3.83125,10 3.625,10 L2.375,10 C2.16875,10 2,9.83125 2,9.625 L2,8.375 Z M2,12.375 C2,12.16875 2.16875,12 2.375,12 L3.625,12 C3.83125,12 4,12.16875 4,12.375 L4,13.625 C4,13.83125 3.83125,14 3.625,14 L2.375,14 C2.16875,14 2,13.83125 2,13.625 L2,12.375 Z M12.5,2 L11,2 L11,0.5 C11,0.225 10.775,0 10.5,0 L9.5,0 C9.225,0 9,0.225 9,0.5 L9,2 L5,2 L5,0.5 C5,0.225 4.775,0 4.5,0 L3.5,0 C3.225,0 3,0.225 3,0.5 L3,2 L1.5,2 C0.671875,2 0,2.671875 0,3.5 L0,5 L14,5 L14,3.5 C14,2.671875 13.328125,2 12.5,2 Z" id="Shape"></path>
        </g>
    </g>
</svg>