{
	"asset":{
		"generator":"Khronos glTF Blender I/O v4.5.47",
		"version":"2.0"
	},
	"scene":0,
	"scenes":[
		{
			"name":"Scene",
			"nodes":[
				0,
				2
			]
		}
	],
	"nodes":[
		{
			"mesh":0,
			"name":"ThumbnailCard",
			"rotation":[
				-0.7079666256904602,
				0,
				0,
				0.7062458992004395
			],
			"scale":[
				4.563982009887695,
				4.563995361328125,
				6.606538772583008
			],
			"translation":[
				-0.3786945343017578,
				29.477237701416016,
				0.9977952837944031
			]
		},
		{
			"mesh":1,
			"name":"Node1"
		},
		{
			"children":[
				1
			],
			"name":"Node0"
		}
	],
	"materials":[
		{
			"doubleSided":true,
			"name":"ThumbnailMaterial",
			"pbrMetallicRoughness":{
				"baseColorTexture":{
					"index":0
				},
				"metallicFactor":0,
				"roughnessFactor":0.5
			}
		},
		{
			"doubleSided":true,
			"name":"x1",
			"pbrMetallicRoughness":{
				"baseColorFactor":[
					0.8509804010391235,
					0.8509804010391235,
					0.8509804010391235,
					1
				],
				"metallicFactor":0.05000000074505806,
				"roughnessFactor":0.5
			}
		}
	],
	"meshes":[
		{
			"name":"Plane",
			"primitives":[
				{
					"attributes":{
						"POSITION":0,
						"NORMAL":1,
						"TEXCOORD_0":2
					},
					"indices":3,
					"material":0
				}
			]
		},
		{
			"name":"Mesh_0",
			"primitives":[
				{
					"attributes":{
						"POSITION":4,
						"NORMAL":5,
						"TEXCOORD_0":6
					},
					"indices":7,
					"material":1
				}
			]
		}
	],
	"textures":[
		{
			"sampler":0,
			"source":0
		}
	],
	"images":[
		{
			"mimeType":"image/png",
			"name":"texture",
			"uri":"texture.png"
		}
	],
	"accessors":[
		{
			"bufferView":0,
			"componentType":5126,
			"count":66,
			"max":[
				1,
				0.05000000074505806,
				1
			],
			"min":[
				-1,
				0,
				-1
			],
			"type":"VEC3"
		},
		{
			"bufferView":1,
			"componentType":5126,
			"count":66,
			"type":"VEC3"
		},
		{
			"bufferView":2,
			"componentType":5126,
			"count":66,
			"type":"VEC2"
		},
		{
			"bufferView":3,
			"componentType":5123,
			"count":180,
			"type":"SCALAR"
		},
		{
			"bufferView":4,
			"componentType":5126,
			"count":626,
			"max":[
				7.765094757080078,
				37.750450134277344,
				4.302507400512695
			],
			"min":[
				-8.500371932983398,
				-0.6842705011367798,
				-1.6745527982711792
			],
			"type":"VEC3"
		},
		{
			"bufferView":5,
			"componentType":5126,
			"count":626,
			"type":"VEC3"
		},
		{
			"bufferView":6,
			"componentType":5126,
			"count":626,
			"type":"VEC2"
		},
		{
			"bufferView":7,
			"componentType":5123,
			"count":2640,
			"type":"SCALAR"
		}
	],
	"bufferViews":[
		{
			"buffer":0,
			"byteLength":792,
			"byteOffset":0,
			"target":34962
		},
		{
			"buffer":0,
			"byteLength":792,
			"byteOffset":792,
			"target":34962
		},
		{
			"buffer":0,
			"byteLength":528,
			"byteOffset":1584,
			"target":34962
		},
		{
			"buffer":0,
			"byteLength":360,
			"byteOffset":2112,
			"target":34963
		},
		{
			"buffer":0,
			"byteLength":7512,
			"byteOffset":2472,
			"target":34962
		},
		{
			"buffer":0,
			"byteLength":7512,
			"byteOffset":9984,
			"target":34962
		},
		{
			"buffer":0,
			"byteLength":5008,
			"byteOffset":17496,
			"target":34962
		},
		{
			"buffer":0,
			"byteLength":5280,
			"byteOffset":22504,
			"target":34963
		}
	],
	"samplers":[
		{
			"magFilter":9729,
			"minFilter":9987
		}
	],
	"buffers":[
		{
			"byteLength":27784,
			"uri":"markerx.bin"
		}
	]
}
