<?xml version="1.0" standalone="no"?>
<!DOCTYPE svg PUBLIC "-//W3C//DTD SVG 20010904//EN"
 "http://www.w3.org/TR/2001/REC-SVG-20010904/DTD/svg10.dtd">
<svg version="1.0" xmlns="http://www.w3.org/2000/svg"
 width="200.000000pt" height="200.000000pt" viewBox="0 0 200.000000 200.000000"
 preserveAspectRatio="xMidYMid meet">
<metadata>
Created by potrace 1.14, written by Peter Selinger 2001-2017
</metadata>
<g transform="translate(0.000000,200.000000) scale(0.100000,-0.100000)"
fill="#000000" stroke="none">
<path d="M332 1946 c0 -11 -6 -32 -17 -71 -5 -15 2 -25 24 -38 17 -10 34 -18
38 -18 5 -1 26 -9 48 -19 57 -26 103 -30 89 -8 -4 7 -3 8 4 4 8 -4 8 -15 2
-31 -19 -51 -11 -64 60 -90 3 -1 19 -8 35 -15 17 -7 35 -14 42 -16 12 -2 26
20 32 53 0 3 9 -1 19 -9 15 -14 118 -69 124 -67 2 0 16 -5 32 -11 33 -12 35
-11 42 24 2 14 9 37 14 51 6 15 6 24 1 21 -5 -3 -14 1 -21 9 -7 8 -18 15 -24
15 -7 0 -32 10 -57 22 -24 12 -50 21 -58 19 -8 -1 -10 2 -6 9 6 9 2 9 -14 1
-11 -7 -21 -16 -21 -21 0 -6 -4 -10 -9 -10 -5 0 -3 20 4 44 16 52 16 52 -69
90 -68 31 -90 30 -94 -4 -2 -14 -8 -29 -14 -35 -8 -7 -9 -6 -4 2 9 16 -34 47
-94 69 -28 10 -50 22 -50 26 0 4 -3 7 -7 7 -5 -1 -10 0 -13 1 -20 7 -37 6 -38
-4z m208 -126 c0 -5 -2 -10 -4 -10 -3 0 -8 5 -11 10 -3 6 -1 10 4 10 6 0 11
-4 11 -10z"/>
<path d="M1270 1942 c0 -9 -25 -44 -52 -73 -10 -11 -15 -19 -10 -19 4 0 2 -4
-3 -8 -6 -4 -22 -25 -38 -48 -26 -38 -27 -45 -27 -167 l0 -127 44 0 c44 0 44
0 42 -35 -1 -19 3 -35 8 -35 27 0 -18 -24 -48 -25 -31 -2 -126 -51 -126 -66 0
-4 -13 -12 -30 -19 -16 -7 -30 -16 -30 -21 0 -5 -4 -9 -10 -9 -9 0 -106 -65
-120 -80 -10 -10 -90 -60 -93 -58 -2 2 -11 -4 -20 -12 -35 -32 -45 -39 -51
-33 -3 4 -6 2 -6 -4 0 -6 -19 -22 -42 -36 -24 -14 -56 -37 -73 -51 -16 -14
-31 -23 -33 -21 -2 2 -15 -7 -29 -21 -13 -13 -28 -22 -33 -19 -4 3 -10 1 -12
-3 -4 -12 -110 -83 -118 -80 -124 54 -141 60 -157 53 -10 -5 -21 -7 -25 -7 -5
1 -8 -196 -8 -438 l0 -440 824 0 824 0 -2 72 c-1 40 2 79 7 86 5 6 5 12 1 12
-11 0 -11 130 0 148 4 6 4 12 -1 12 -10 0 -10 131 1 148 4 6 4 12 -1 12 -10 0
-10 131 1 148 4 6 3 12 -1 12 -8 0 -10 109 -3 135 1 6 1 12 0 15 -1 3 -3 138
-5 300 -3 341 -2 323 -15 315 -5 -3 -10 -2 -10 3 0 5 -16 35 -36 65 -23 36
-41 54 -50 50 -8 -3 -14 -8 -14 -12 0 -4 -9 -17 -20 -29 -12 -12 -18 -22 -15
-22 3 0 -6 -16 -20 -35 l-27 -34 0 -241 c-1 -214 -2 -240 -17 -241 -9 -1 -45
-2 -81 -2 l-65 -1 -5 225 -5 224 -42 -2 c-26 -1 -43 3 -44 10 -7 82 -7 82 44
85 l47 3 0 127 c0 128 -7 159 -44 184 -6 4 -8 8 -4 8 7 0 -18 33 -50 66 -7 8
-11 14 -8 14 3 0 -4 11 -16 25 -21 24 -48 34 -48 17z m-130 -621 c0 -5 -7 -14
-15 -21 -8 -7 -12 -16 -9 -21 5 -9 -3 -11 -41 -12 -11 0 -26 -6 -33 -13 -11
-12 -7 -13 25 -8 33 5 36 4 24 -10 -7 -9 -17 -14 -21 -11 -5 3 -11 1 -15 -5
-3 -5 -1 -10 6 -10 16 0 -8 -28 -46 -52 -28 -18 -28 -19 -5 -14 25 6 25 6 3
-5 -13 -7 -23 -19 -23 -26 0 -8 -9 -17 -19 -20 -13 -3 -18 -12 -16 -24 2 -11
0 -17 -5 -14 -5 3 -11 1 -15 -5 -3 -5 0 -10 7 -10 8 0 9 -3 3 -8 -14 -9 -14
-45 0 -54 6 -5 6 -8 -2 -8 -15 0 -13 -71 2 -82 6 -5 5 -8 -3 -8 -7 0 -11 -4
-8 -9 3 -4 -5 -7 -19 -6 -18 2 -23 -1 -22 -16 1 -10 7 -21 14 -23 7 -3 10 1 7
9 -4 9 1 13 15 12 18 -1 19 -3 6 -17 -13 -14 -13 -19 1 -38 8 -12 11 -22 5
-22 -10 0 -8 -39 3 -61 4 -8 -1 -3 -12 10 l-19 24 0 -27 c0 -15 2 -24 5 -22 8
9 33 -15 26 -25 -11 -19 -13 -53 -3 -65 7 -8 5 -16 -5 -27 -9 -8 -11 -18 -6
-23 7 -7 -158 -11 -203 -5 -5 1 -5 11 -1 23 6 21 6 22 -12 8 -17 -13 -18 -13
-8 0 6 8 10 32 8 53 -2 26 1 37 9 34 7 -2 11 -16 11 -31 -2 -32 19 -30 21 3 1
15 -7 27 -27 37 -15 8 -27 18 -27 22 3 20 -2 33 -11 27 -6 -4 -9 -1 -8 6 2 7
-3 14 -9 15 -7 1 -18 2 -24 3 -5 0 -7 6 -4 11 3 6 -1 10 -10 10 -9 0 -13 -4
-10 -10 10 -16 -1 -11 -16 7 -10 11 -10 14 -1 9 6 -4 12 -3 12 3 0 19 -19 21
-29 4 -7 -13 -10 -14 -11 -4 0 8 -3 11 -7 8 -11 -12 -32 14 -26 31 6 15 4 15
-9 4 -14 -11 -21 -11 -40 -1 -13 7 -27 12 -31 11 -4 -1 -14 4 -21 11 -11 11
-8 17 22 38 20 13 37 23 39 21 2 -2 12 5 21 15 9 10 14 14 10 9 -16 -20 -7
-28 12 -11 11 10 17 22 14 26 -3 5 2 9 10 9 8 0 22 10 31 23 l17 22 -7 -25
c-5 -23 -5 -23 8 -8 8 10 17 15 20 11 4 -3 7 -1 7 5 0 5 -3 12 -7 15 -5 2 -3
2 4 1 17 -4 26 13 11 20 -7 3 0 3 15 1 21 -3 27 0 23 10 -2 7 2 19 10 25 8 7
14 9 14 4 0 -4 7 1 15 12 13 16 14 16 9 1 -5 -13 -2 -16 10 -11 9 3 14 9 12
13 -3 4 0 13 6 21 8 12 9 11 4 -3 -4 -12 -2 -17 6 -14 7 2 12 10 10 16 -1 6 6
15 15 18 10 4 24 15 31 25 7 10 18 16 23 13 5 -4 12 1 15 10 5 13 9 14 15 4 4
-7 3 -19 -2 -26 -8 -9 -5 -11 9 -10 16 1 19 5 11 18 -13 25 -11 29 9 29 13 0
14 2 3 9 -10 6 -5 12 17 22 17 7 28 17 25 23 -3 5 -1 6 5 2 6 -4 8 -14 5 -24
-6 -15 -5 -15 10 -3 13 10 14 17 7 26 -7 9 -7 15 -1 19 5 4 12 2 16 -4 3 -5
11 -10 17 -10 6 0 5 7 -3 18 -7 9 -10 14 -5 10 4 -3 16 1 27 10 11 9 25 17 32
17 7 1 11 7 9 14 -1 7 2 10 7 7 5 -3 14 1 21 9 14 17 30 20 30 6z"/>
<path d="M1105 1300 c-10 -11 -16 -22 -14 -24 2 -2 12 7 22 20 22 29 17 32 -8
4z"/>
<path d="M1012 1210 c-23 -16 -44 -25 -47 -20 -3 5 -12 7 -21 3 -12 -4 -12 -8
-2 -21 7 -9 8 -13 3 -10 -6 4 -17 3 -25 -3 -8 -5 -10 -9 -5 -9 6 0 11 -9 12
-19 1 -16 -4 -19 -25 -16 -15 1 -29 3 -31 4 -2 0 3 9 10 18 12 15 12 16 -1 8
-8 -6 -18 -10 -22 -10 -5 0 -8 -4 -7 -8 1 -13 -35 -36 -46 -30 -5 4 -7 2 -2
-2 8 -10 -21 -45 -37 -45 -6 0 -17 -9 -24 -20 -15 -24 0 -27 19 -4 12 14 14
14 25 -1 8 -10 14 -12 19 -6 3 6 0 11 -7 11 -10 0 -9 3 2 9 8 6 18 7 24 4 5
-3 6 -1 2 5 -4 6 -14 8 -23 5 -13 -5 -13 -3 3 13 10 11 22 16 25 11 4 -5 9 -5
13 1 3 6 3 12 -1 15 -5 2 -2 2 5 0 7 -1 11 1 8 5 -3 5 1 9 9 9 13 0 13 -3 0
-17 -25 -27 -17 -35 10 -10 14 13 25 20 25 16 0 -4 10 -2 23 4 20 10 20 10 5
-3 -19 -15 -25 -32 -8 -22 6 3 10 1 10 -5 0 -7 -6 -10 -14 -7 -9 4 -13 0 -12
-11 2 -9 8 -17 15 -18 7 -2 8 -1 1 3 -7 3 -4 11 8 19 13 9 19 23 17 39 -2 20
1 23 11 14 9 -8 16 -5 25 13 7 13 12 24 11 26 -6 8 0 22 7 18 5 -3 20 3 32 15
17 14 20 22 11 26 -10 4 -9 8 5 19 36 27 5 13 -35 -16z m24 -17 c-2 -2 -7 -4
-10 -4 -3 1 -16 -4 -28 -10 -21 -9 -21 -9 2 10 13 10 28 17 33 14 5 -3 6 -7 3
-10z m-66 -53 c-5 -10 -6 -21 -2 -25 4 -4 -2 -2 -14 5 -26 16 -27 39 -1 32 17
-4 18 -2 8 19 -11 22 -11 23 3 5 11 -13 12 -24 6 -36z"/>
<path d="M875 1070 c-14 -15 -22 -17 -39 -9 -20 10 -20 10 -2 -5 19 -15 11
-22 -19 -16 -5 1 -7 -2 -3 -6 4 -4 3 -13 -3 -20 -13 -15 -42 -7 -32 10 3 6 -3
3 -15 -7 -24 -22 -50 -14 -31 9 6 8 9 17 5 21 -3 3 -6 1 -6 -5 0 -7 -5 -12
-11 -12 -5 0 -7 6 -3 13 4 7 3 8 -2 4 -5 -5 -9 -16 -9 -25 0 -9 -4 -17 -10
-17 -16 0 -36 -16 -30 -24 5 -9 -45 -36 -59 -32 -5 1 -23 -11 -40 -27 -17 -16
-39 -28 -49 -27 -10 2 -21 -3 -24 -11 -3 -8 -9 -12 -13 -9 -4 3 -13 -2 -20
-10 -7 -8 -10 -16 -6 -16 3 -1 9 -2 14 -3 4 -1 13 -5 21 -10 10 -6 12 -5 7 2
-4 7 -2 12 3 12 6 0 11 -7 11 -15 0 -17 16 -20 25 -5 9 15 26 1 23 -18 -3 -17
19 -24 37 -12 13 9 77 -35 67 -45 -4 -5 -2 -5 5 -2 13 8 56 -41 47 -54 -5 -8
9 -13 21 -6 2 1 10 -6 18 -17 14 -19 15 -39 2 -69 -6 -15 -10 -15 -24 -5 -14
11 -14 11 -3 -3 7 -9 11 -21 10 -25 -2 -5 1 -9 7 -9 5 0 10 8 10 17 2 21 15
37 15 19 0 -7 5 -9 11 -5 8 4 7 9 -2 15 -8 5 -9 9 -4 9 6 0 17 -5 25 -10 13
-8 13 -10 1 -10 -13 0 -13 -2 0 -12 8 -7 12 -12 10 -11 -2 2 -10 -2 -18 -9
-10 -8 -12 -8 -8 4 4 9 0 15 -10 15 -17 0 -18 -6 -7 -24 8 -12 41 -11 61 1 5
4 12 0 14 -6 4 -10 6 -10 6 0 1 7 6 10 12 7 15 -10 59 -13 54 -5 -3 4 2 13 10
20 14 11 14 15 -1 31 -10 11 -13 19 -7 19 5 0 10 7 10 16 0 15 -2 15 -13 -1
-9 -11 -10 -25 -4 -41 8 -19 6 -22 -7 -17 -10 4 -14 2 -9 -5 3 -6 2 -13 -3
-16 -5 -4 -8 2 -6 11 2 10 4 18 5 18 1 0 3 9 5 20 1 11 5 27 9 36 4 10 2 16
-7 16 -10 0 -14 -10 -12 -31 2 -40 -3 -50 -21 -35 -8 7 -14 7 -14 1 0 -5 7
-13 16 -16 9 -4 14 -9 11 -13 -4 -3 -14 0 -24 8 -13 11 -15 11 -9 1 7 -11 4
-11 -11 -1 -11 6 -20 18 -21 25 -1 8 -3 21 -4 29 -1 8 -10 18 -21 21 -14 4
-16 8 -7 14 9 5 9 9 1 14 -6 4 -11 1 -11 -6 -1 -7 -7 -2 -15 12 -9 15 -15 19
-15 10 0 -8 -8 -2 -16 13 -9 16 -13 31 -10 34 3 3 9 -5 14 -17 5 -14 11 -19
16 -12 3 6 2 13 -3 17 -6 3 -8 13 -5 23 4 10 2 13 -3 7 -4 -5 -15 -11 -23 -13
-10 -1 -9 3 5 14 20 16 20 16 -1 10 -13 -4 -26 -1 -34 9 -15 18 -11 24 19 30
29 5 41 14 41 28 0 7 -4 6 -10 -3 -5 -8 -10 -12 -10 -7 0 4 -14 0 -31 -8 -21
-12 -29 -21 -25 -33 5 -14 4 -14 -8 2 -8 10 -19 16 -24 12 -11 -6 -9 24 2 43
7 10 4 11 -13 2 -11 -7 -21 -8 -21 -4 0 4 -4 2 -9 -6 -6 -9 -11 -10 -15 -2 -4
6 -2 11 3 11 7 0 7 7 -1 20 -8 12 -19 18 -28 15 -8 -3 -3 4 10 17 14 13 27 20
28 15 2 -4 8 -4 14 -1 6 4 5 10 -3 15 -10 6 -7 8 8 6 17 -1 19 -4 11 -14 -18
-22 -3 -25 17 -3 14 15 15 20 4 20 -8 1 -1 8 14 16 16 8 25 20 21 26 -5 7 -2
8 6 3 9 -6 11 -4 5 5 -5 9 -4 11 4 6 9 -6 9 -11 1 -21 -7 -8 -7 -16 -2 -19 12
-7 25 22 16 35 -3 5 -3 9 0 9 3 0 12 -12 21 -27 14 -25 15 -25 9 -5 -5 21 -3
23 18 17 16 -4 19 -3 9 3 -8 6 -9 12 -3 16 5 3 13 -1 16 -9 3 -9 -1 -18 -9
-21 -21 -8 -19 -19 4 -21 15 -1 18 4 16 24 l-3 26 19 -24 c14 -17 17 -19 13
-5 -6 15 -3 17 17 12 l24 -7 -25 15 c-24 14 -24 15 -2 13 12 -1 22 -5 22 -10
0 -4 5 -5 11 -1 8 4 3 12 -12 21 -13 8 -16 12 -6 9 12 -4 16 -2 12 7 -4 6 3 1
15 -13 12 -14 19 -19 15 -12 -6 11 -3 12 14 3 24 -13 29 -23 7 -15 -18 7 -28
-9 -20 -31 6 -13 9 -14 16 -3 8 10 9 10 5 -2 -2 -8 -12 -13 -22 -12 -16 3 -17
1 -7 -11 13 -16 36 -17 49 -2 5 4 2 5 -6 0 -11 -6 -13 -4 -7 11 15 35 13 69
-5 82 -12 8 -16 21 -13 37 5 30 2 31 -21 5z m7 -17 c-10 -4 -9 -9 5 -20 17
-13 16 -13 -5 -3 -22 11 -22 31 1 29 8 0 8 -2 -1 -6z m32 -71 c3 -5 -1 -9 -9
-9 -8 0 -15 4 -15 9 0 4 4 8 9 8 6 0 12 -4 15 -8z m-412 -114 c-14 -14 -44
-20 -36 -7 3 5 10 7 15 4 5 -4 12 1 15 10 4 9 9 13 12 10 3 -3 0 -11 -6 -17z
m63 -16 c-9 -9 16 -31 30 -26 7 3 16 1 20 -5 3 -7 0 -8 -9 -5 -9 3 -16 2 -16
-3 0 -5 -6 -10 -14 -10 -8 0 -12 6 -10 12 3 7 -2 18 -11 25 -13 11 -18 11 -24
1 -6 -10 -10 -9 -14 3 -3 8 -2 18 4 21 5 4 6 11 3 17 -4 5 5 2 20 -7 15 -10
24 -20 21 -23z m228 -216 c4 -10 1 -13 -9 -9 -15 6 -19 23 -5 23 5 0 11 -7 14
-14z"/>
<path d="M863 988 c-12 -20 -12 -39 0 -35 6 2 11 13 12 25 2 25 -1 27 -12 10z"/>
<path d="M831 958 c12 -22 12 -22 -16 -4 -15 10 -25 14 -21 8 3 -5 -1 -15 -9
-22 -12 -10 -15 -10 -15 0 0 8 -2 11 -5 8 -3 -3 -3 -13 1 -22 6 -15 8 -15 18
-2 6 9 20 14 31 11 11 -2 23 -4 28 -4 4 -1 6 -4 6 -8 -3 -20 2 -34 11 -28 5 3
6 13 3 22 -6 15 -5 16 9 3 9 -8 12 -16 8 -18 -5 -2 -6 -11 -3 -20 3 -10 1 -13
-4 -7 -12 15 -30 16 -30 1 0 -21 40 -11 48 12 11 29 22 28 15 0 -3 -13 -3 -17
0 -10 3 6 9 10 13 8 4 -3 8 1 8 9 0 8 -4 15 -9 15 -19 0 -24 2 -39 16 -9 8
-19 11 -22 7 -6 -6 -11 10 -9 29 1 3 -5 9 -14 12 -12 5 -13 2 -3 -16z"/>
<path d="M710 963 c0 -7 0 -16 1 -19 0 -4 -5 -10 -11 -14 -9 -5 -9 -9 -1 -14
6 -4 11 -2 11 5 0 7 7 4 16 -7 14 -18 15 -18 4 6 -11 24 -10 24 4 6 20 -25 20
-40 1 -33 -8 4 -17 3 -19 -2 -7 -11 26 -10 40 1 8 5 18 3 27 -6 13 -14 16 -14
21 -1 3 8 1 16 -4 16 -6 1 -14 3 -20 4 -5 1 -14 3 -20 4 -5 0 -9 4 -9 9 3 19
-2 33 -10 27 -6 -3 -14 3 -20 12 -6 10 -11 12 -11 6z"/>
<path d="M662 953 c-6 -3 -10 -9 -7 -13 3 -5 -4 -18 -16 -29 -16 -15 -26 -18
-40 -11 -27 15 -32 -4 -8 -31 11 -13 17 -18 13 -10 -4 9 -2 12 7 9 8 -3 23 -1
34 5 19 10 19 9 2 -16 -14 -21 -14 -27 -3 -37 17 -13 26 -2 22 26 -2 10 1 27
6 38 8 14 7 17 -3 11 -8 -5 -10 -4 -5 3 11 19 25 14 23 -8 -1 -11 -6 -20 -12
-20 -5 0 -3 -5 5 -10 11 -7 11 -10 2 -10 -7 0 -10 -5 -6 -11 3 -6 9 -7 13 -3
7 11 26 16 68 18 31 2 32 2 17 -25 -9 -18 -10 -30 -4 -34 6 -3 11 -1 11 4 1 6
3 16 4 21 1 6 3 14 4 19 2 14 30 21 37 9 5 -7 2 -8 -6 -3 -9 5 -11 4 -6 -3 5
-9 13 -9 29 -1 20 9 20 9 5 -4 -23 -18 -23 -22 2 -24 11 -1 18 2 15 7 -3 5 3
13 12 19 17 10 17 10 -2 12 -11 1 -26 1 -33 0 -8 -1 -11 7 -8 26 3 15 1 35 -4
43 -9 13 -10 13 -10 0 0 -13 -1 -13 -10 0 -5 8 -12 11 -17 7 -9 -9 17 -28 29
-21 14 9 8 -6 -11 -27 -16 -17 -19 -18 -31 -4 -7 9 -17 12 -24 7 -14 -11 -56
-13 -56 -3 0 4 5 12 10 19 6 6 7 10 4 7 -12 -8 -33 16 -28 30 6 15 -6 24 -24
18z m2 -42 c-10 -17 -21 -28 -26 -25 -4 3 -8 0 -8 -7 0 -7 -3 -10 -6 -6 -5 5
44 65 54 67 2 0 -5 -13 -14 -29z m-54 -26 c0 -12 -19 -12 -23 0 -4 9 -1 12 9
8 7 -3 14 -7 14 -8z"/>
<path d="M740 825 c-7 -13 -17 -22 -22 -19 -4 3 -8 -1 -8 -8 0 -10 -2 -10 -9
1 -6 9 -11 10 -15 2 -7 -10 6 -16 28 -12 4 1 13 -2 20 -7 6 -5 21 -8 33 -7 17
1 20 -2 13 -15 -6 -12 -4 -16 11 -17 10 -1 19 3 19 8 0 6 -4 7 -10 4 -5 -3
-10 -1 -10 4 0 10 14 15 33 12 4 0 7 4 7 10 0 5 5 7 11 4 6 -5 4 -12 -8 -22
-17 -13 -16 -13 5 -3 13 6 20 16 16 22 -5 8 -2 9 9 5 10 -4 24 -10 34 -14 10
-4 14 -3 9 5 -3 6 -1 14 4 17 12 7 -16 34 -35 35 -5 0 -3 -5 5 -10 8 -5 11
-10 5 -11 -45 -7 -57 -4 -69 13 -9 12 -16 16 -21 9 -3 -6 -1 -11 4 -11 6 0 3
-9 -6 -20 -10 -12 -21 -16 -26 -11 -5 5 -17 7 -26 4 -11 -4 -10 -1 4 10 11 9
16 17 10 17 -5 0 -4 4 4 9 7 5 9 11 4 14 -6 4 -16 -5 -23 -18z m86 -27 c4 -7
4 -10 -1 -6 -4 4 -15 2 -24 -5 -14 -11 -14 -10 -2 6 16 20 18 21 27 5z m69 2
c-3 -5 -12 -10 -18 -10 -7 0 -6 4 3 10 19 12 23 12 15 0z"/>
<path d="M911 783 c4 -27 -1 -35 -16 -23 -13 11 -20 11 -40 0 -30 -16 -32 -25
-5 -27 11 -1 19 3 17 9 -1 6 5 13 13 15 9 3 11 1 5 -4 -12 -10 -19 -36 -7 -29
5 3 9 -1 9 -8 0 -17 -26 -14 -38 5 -12 20 -11 2 2 -22 5 -11 15 -16 21 -13 7
4 8 3 4 -5 -4 -6 -12 -9 -17 -6 -5 3 -6 0 -4 -7 3 -8 -1 -22 -10 -33 -10 -13
-14 -15 -12 -5 2 8 2 12 0 7 -3 -4 -8 -5 -13 -2 -4 3 -3 -6 3 -19 10 -20 13
-22 20 -10 6 11 12 12 21 5 9 -8 12 -1 12 27 -1 36 0 37 32 34 19 -1 31 2 27
7 -3 6 -14 8 -25 6 -22 -4 -26 5 -9 22 8 8 8 13 0 17 -12 8 -15 27 -3 25 19
-3 28 3 29 21 1 11 -2 20 -8 20 -5 0 -8 -3 -8 -7z"/>
<path d="M747 756 c-3 -8 -3 -17 1 -21 4 -4 8 -11 8 -16 1 -5 2 -13 3 -19 0
-5 4 -9 9 -9 4 1 9 0 12 -1 3 -1 20 -3 39 -5 22 -2 29 0 20 6 -8 5 -10 9 -6 9
22 0 -15 35 -40 36 -45 2 -49 4 -34 13 8 5 9 11 3 15 -5 3 -12 0 -15 -8z m61
-34 c12 10 14 10 8 1 -4 -8 -2 -13 6 -13 7 0 5 -5 -6 -11 -19 -11 -37 2 -35
26 0 6 3 4 6 -3 4 -10 8 -10 21 0z"/>
<path d="M800 670 c-15 -10 -14 -11 28 -15 25 -3 30 10 6 19 -19 7 -16 8 -34
-4z"/>
<path d="M478 1610 c-16 -10 -16 -12 -1 -39 45 -77 189 -109 188 -41 0 14 -8
16 -82 19 -22 1 -73 44 -73 61 0 12 -10 12 -32 0z"/>
<path d="M409 1557 c-11 -9 -13 -17 -5 -32 39 -75 115 -127 191 -131 79 -3 97
3 93 35 -2 17 -8 25 -18 22 -48 -12 -110 -3 -154 23 -25 15 -46 30 -46 34 0 4
-10 19 -23 34 -18 23 -25 25 -38 15z"/>
</g>
</svg>
